<?xml version="1.0" standalone="no"?>
<!DOCTYPE svg PUBLIC "-//W3C//DTD SVG 20010904//EN"
 "http://www.w3.org/TR/2001/REC-SVG-20010904/DTD/svg10.dtd">
<svg version="1.0" xmlns="http://www.w3.org/2000/svg"
 width="1563.000000pt" height="1563.000000pt" viewBox="0 0 1563.000000 1563.000000"
 preserveAspectRatio="xMidYMid meet">

<g transform="translate(0.000000,1563.000000) scale(0.100000,-0.100000)"
fill="#000000" stroke="none">
<path d="M0 7815 l0 -7815 7815 0 7815 0 0 7815 0 7815 -7815 0 -7815 0 0
-7815z m6576 3738 c-110 -228 -471 -821 -538 -884 -24 -23 -36 -42 -33 -52 9
-22 -3 -25 -73 -18 l-63 6 26 35 c19 25 42 40 93 58 37 13 69 26 71 28 3 3
-11 18 -30 35 -28 25 -30 29 -11 24 17 -5 28 0 42 18 11 14 38 32 60 41 40 16
47 29 30 56 -7 12 -15 13 -40 3 -16 -6 -30 -9 -30 -6 0 2 26 40 57 84 47 66
60 78 77 73 19 -6 19 -5 7 10 -12 15 -7 27 47 104 34 48 125 181 203 296 79
115 145 204 147 197 2 -7 -17 -56 -42 -108z m3222 -653 c16 0 19 -5 15 -21 -4
-14 0 -26 10 -34 14 -10 15 -21 2 -111 -8 -54 -15 -102 -15 -106 0 -4 -16 0
-35 8 -37 15 -55 12 -55 -10 0 -8 12 -11 33 -9 55 6 58 -1 42 -107 -8 -52 -23
-139 -35 -194 -11 -54 -20 -109 -20 -121 0 -14 -11 -32 -27 -44 -16 -11 -37
-29 -48 -40 -24 -23 -125 -39 -125 -19 0 16 92 522 96 527 2 2 15 -4 30 -13
14 -10 28 -15 31 -12 3 3 -6 30 -21 60 -24 49 -26 58 -16 102 15 65 43 127 71
155 20 20 23 21 34 6 7 -10 21 -17 33 -17z m1458 -64 c19 -14 19 -16 1 -82 -9
-37 -19 -70 -22 -72 -2 -3 -16 3 -29 12 -39 25 -56 21 -56 -15 0 -27 3 -31 21
-26 24 6 49 -1 49 -14 0 -5 -18 -19 -40 -31 -46 -27 -49 -34 -16 -42 l25 -6
-30 -73 c-30 -73 -30 -73 -64 -69 -43 5 -45 -5 -6 -21 l29 -12 -43 -95 c-24
-52 -64 -134 -90 -181 -47 -86 -47 -87 -74 -73 -14 7 -34 15 -44 18 -16 5 -15
9 8 45 47 70 295 657 295 697 0 18 36 54 53 54 7 0 22 -6 33 -14z m-945 -163
c13 -16 12 -17 -3 -4 -10 7 -18 15 -18 17 0 8 8 3 21 -13z m-5 -32 c25 -15 32
-27 37 -66 13 -88 10 -103 -23 -120 -16 -9 -30 -18 -30 -22 0 -15 35 -43 55
-43 19 0 23 -11 45 -122 12 -68 29 -139 36 -159 l12 -37 -45 -7 c-25 -3 -47
-5 -49 -2 -8 8 -41 131 -48 179 -7 46 -6 47 26 64 36 19 26 30 -13 16 -24 -9
-24 -9 -39 96 -8 58 -20 107 -25 109 -6 2 -23 -22 -38 -52 -20 -42 -32 -55
-49 -55 -21 -1 -22 -2 -6 -14 16 -12 14 -18 -20 -92 -20 -43 -39 -81 -42 -84
-3 -3 -13 -28 -22 -56 -10 -28 -27 -71 -38 -96 l-20 -46 -35 12 c-19 7 -38 15
-41 19 -15 14 38 116 72 139 23 15 34 31 34 47 0 24 0 24 -21 5 -12 -10 -20
-14 -18 -9 30 78 47 106 71 116 15 6 33 17 39 25 9 11 7 14 -10 14 -23 0 -24
1 -15 24 3 9 15 16 25 16 16 0 17 3 8 18 -9 14 -6 29 16 73 40 80 71 117 103
122 15 2 29 5 32 5 3 1 19 -7 36 -17z m-4382 -77 c9 -8 16 -19 16 -22 0 -33
-38 -98 -170 -290 -130 -189 -156 -222 -177 -222 -22 0 -25 -4 -21 -29 4 -25
-16 -59 -135 -223 -76 -106 -144 -200 -150 -209 -10 -15 -12 -15 -27 4 -13 16
-23 18 -45 13 l-29 -7 31 -16 c17 -8 34 -20 36 -27 11 -27 -874 -1177 -1277
-1661 -372 -446 -557 -657 -571 -651 -6 2 -22 -16 -34 -40 -13 -24 -29 -44
-36 -44 -7 0 -16 -10 -19 -22 -6 -22 -7 -22 -20 8 -24 55 -80 80 -106 49 -10
-12 -9 -20 4 -40 9 -13 16 -26 16 -28 0 -2 -21 0 -47 4 -66 11 -93 11 -93 0 0
-5 12 -28 27 -50 25 -39 43 -52 43 -31 0 18 80 51 117 48 l36 -3 24 -102 25
-103 -38 -35 c-21 -20 -43 -34 -50 -31 -9 4 -9 -4 2 -29 8 -19 14 -52 14 -74
0 -68 7 -75 46 -42 22 20 40 28 53 24 30 -8 26 -24 -14 -63 -52 -50 -47 -61
29 -72 14 -2 5 -13 -37 -40 -31 -21 -59 -38 -61 -38 -2 0 -30 106 -62 236
l-59 236 -56 -61 c-31 -33 -64 -61 -73 -61 -9 0 -16 -4 -16 -10 0 -21 -2 -25
-17 -42 -14 -15 -18 -15 -66 8 -57 26 -177 35 -177 13 0 -16 84 -99 100 -99 9
0 7 6 -5 20 -17 19 -17 20 1 19 10 0 37 -3 58 -7 l39 -7 -159 -163 -159 -163
-43 7 c-34 5 -43 3 -48 -11 -5 -12 -1 -23 12 -32 18 -14 15 -18 -51 -80 -38
-36 -124 -110 -190 -166 -66 -56 -113 -98 -104 -95 68 26 360 116 483 149 126
33 444 109 459 109 2 0 7 -27 11 -61 3 -33 15 -81 26 -106 25 -57 25 -58 -2
-39 -12 9 -28 16 -35 16 -21 0 -15 -27 9 -44 12 -9 20 -17 17 -19 -2 -2 -42
-11 -89 -21 -167 -35 -610 -138 -881 -207 -152 -38 -286 -69 -297 -69 -27 0
-85 50 -88 76 -1 10 -5 37 -9 59 l-7 40 284 273 c235 226 775 776 962 979 l48
52 -42 178 c-167 713 -371 1633 -385 1740 -12 91 11 118 65 78 18 -14 37 -26
42 -27 4 -2 37 -134 73 -293 36 -160 134 -567 219 -905 84 -338 150 -616 145
-618 -18 -7 -8 -22 14 -22 32 0 56 17 39 28 -9 7 46 76 204 253 789 887 1517
1793 2283 2842 81 111 97 127 121 127 16 0 36 -7 44 -16z m2691 -468 c24 -11
51 -16 72 -13 29 5 33 3 33 -15 0 -12 -10 -32 -22 -45 -25 -26 -16 -45 9 -20
16 16 18 10 35 -91 43 -262 143 -479 242 -526 49 -23 93 -20 162 13 89 42 193
171 288 356 27 54 46 81 46 68 0 -29 15 -37 34 -17 18 18 20 33 7 66 -8 22 -3
27 56 61 37 21 63 31 60 23 -3 -8 -11 -50 -18 -95 -7 -44 -16 -78 -20 -75 -5
3 -8 -21 -8 -53 0 -32 -7 -105 -16 -163 -9 -58 -18 -123 -20 -145 -15 -148
-16 -151 -37 -151 -22 1 -47 -28 -35 -40 4 -4 27 -8 51 -8 l45 -1 -20 -21
c-30 -32 -23 -36 26 -12 25 12 45 25 45 28 0 4 -11 12 -24 20 -21 11 -23 16
-14 36 6 13 15 24 19 24 4 0 13 16 19 36 18 54 35 37 36 -37 0 -53 -5 -73 -28
-116 -23 -41 -35 -53 -53 -53 -29 0 -41 -16 -26 -34 9 -10 8 -15 -4 -20 -22
-8 -93 34 -99 59 -8 30 -6 309 4 405 4 47 7 86 6 87 -1 1 -23 -33 -49 -77 -88
-147 -188 -233 -308 -264 -36 -9 -70 -11 -96 -7 -100 19 -199 112 -259 245
-28 64 -43 84 -68 96 -26 13 -33 24 -42 68 -11 48 -10 53 7 63 16 8 19 6 19
-15 0 -25 15 -37 38 -28 38 14 -9 83 -51 75 -19 -4 -27 0 -32 18 -7 21 -8 21
-18 3 -6 -10 -19 -25 -30 -33 -13 -9 -17 -21 -14 -40 5 -21 -36 -191 -90 -383
-5 -16 -8 -15 -34 6 -15 13 -33 26 -39 28 -7 2 14 73 55 188 37 102 77 231 88
288 20 93 24 102 44 102 30 0 29 14 -2 28 -14 6 -25 16 -25 21 0 17 -31 21
-59 6 -46 -24 -118 -112 -161 -197 -22 -44 -40 -73 -40 -65 0 21 -19 32 -32
19 -8 -8 -6 -19 6 -37 16 -24 16 -29 -13 -118 -46 -146 -62 -232 -68 -382 -4
-108 -2 -148 9 -174 l14 -35 26 29 c15 16 41 57 59 92 19 38 37 62 45 59 6 -2
21 6 32 19 11 12 28 28 38 33 35 19 9 21 -33 2 l-42 -19 18 47 c16 45 19 47
51 44 19 -1 38 -6 43 -11 18 -18 -94 -270 -146 -329 l-21 -22 -27 26 c-22 21
-34 25 -66 22 -21 -3 -45 -8 -54 -12 -23 -10 -30 13 -36 117 l-6 88 -35 -53
c-48 -73 -47 -72 -73 -54 -29 20 -49 21 -49 1 0 -8 4 -15 9 -15 10 0 24 -31
16 -38 -2 -3 -12 1 -21 9 -14 11 -18 11 -30 -6 -14 -19 -17 -37 -18 -109 -1
-30 -7 -43 -28 -59 -25 -19 -28 -19 -52 -3 -14 9 -26 22 -26 29 0 16 88 147
112 167 11 8 20 22 21 31 2 13 109 186 168 271 10 14 27 71 39 126 54 266 173
492 305 580 52 34 115 37 180 8z m1036 -49 c-12 -31 -31 -44 -31 -21 0 17 30
58 37 50 2 -2 -1 -15 -6 -29z m337 -68 c-2 -6 -8 -10 -13 -10 -5 0 -11 4 -13
10 -2 6 4 11 13 11 9 0 15 -5 13 -11z m917 1 c-3 -5 -10 -10 -16 -10 -5 0 -9
5 -9 10 0 6 7 10 16 10 8 0 12 -4 9 -10z m-67 -59 c10 -6 5 -15 -25 -38 -74
-59 -160 -86 -200 -65 -14 8 -23 8 -31 0 -16 -16 -91 15 -126 51 -27 28 -27
29 -7 36 11 3 33 -1 50 -9 34 -18 73 -20 99 -7 9 5 38 15 65 22 26 6 50 16 54
21 6 11 97 2 121 -11z m-879 -7 c3 -3 -134 -341 -165 -407 -11 -23 -22 -33
-31 -30 -8 3 -30 -12 -53 -36 -22 -23 -42 -36 -45 -30 -8 11 79 225 101 250 8
9 14 20 12 25 -1 5 19 62 46 127 l49 118 41 -7 c23 -3 43 -8 45 -10z m-2844
-418 c29 -13 59 -45 102 -112 11 -18 13 -17 39 14 l27 33 28 -27 c20 -19 29
-23 30 -13 0 8 4 3 8 -11 4 -14 3 -72 -3 -129 -10 -91 -13 -102 -25 -88 -14
17 -51 24 -51 9 0 -16 32 -52 46 -52 8 0 14 -4 14 -10 0 -5 -20 -187 -45 -404
-25 -218 -45 -401 -45 -406 0 -6 -15 0 -33 14 -19 15 -39 26 -46 26 -9 0 -11
11 -7 38 3 20 10 109 16 197 14 200 14 199 47 211 l28 11 -27 13 c-27 13 -27
13 -21 93 8 101 -2 97 -63 -26 -26 -51 -53 -96 -60 -100 -8 -4 -14 -17 -14
-28 0 -30 -102 -207 -151 -263 -71 -80 -135 -92 -183 -35 l-24 29 -57 -103
c-138 -246 -191 -309 -318 -372 -82 -41 -156 -47 -222 -16 -67 31 -141 115
-193 219 -29 58 -54 97 -67 102 -34 13 -44 32 -57 111 -6 41 -15 78 -19 82
-10 13 -43 -82 -93 -271 -83 -309 -165 -504 -242 -572 -67 -58 -151 -24 -171
68 -14 66 -7 331 12 437 40 234 138 456 246 564 67 66 106 85 173 86 48 0 68
5 90 22 22 18 32 20 48 12 25 -13 34 -39 43 -119 26 -236 112 -505 190 -592
35 -40 94 -78 121 -78 36 0 115 30 160 60 l40 28 32 -20 c37 -23 38 -21 16 26
l-17 35 50 68 c116 158 214 364 219 458 3 84 30 245 55 332 59 210 167 400
252 442 49 25 75 26 122 7z m1128 -534 c-23 -6 -42 17 -23 28 9 6 18 3 26 -8
10 -14 10 -18 -3 -20z m-463 -98 c0 -24 -4 -33 -12 -28 -7 5 -9 2 -5 -9 4 -11
2 -14 -9 -10 -19 7 -18 -4 7 -43 17 -29 18 -34 5 -34 -10 0 -16 -9 -16 -25 0
-18 -5 -25 -20 -25 -14 0 -27 -15 -45 -50 -14 -27 -21 -50 -15 -50 17 0 -34
-69 -55 -74 -11 -3 -33 -6 -48 -6 -15 0 -40 -8 -54 -17 -18 -12 19 51 116 195
78 116 144 212 147 212 2 0 4 -16 4 -36z m-310 -434 c0 -5 -5 -10 -11 -10 -5
0 -7 5 -4 10 3 6 8 10 11 10 2 0 4 -4 4 -10z m49 -59 c11 -7 8 -15 -14 -37
-31 -30 -42 -23 -31 21 7 26 21 31 45 16z m-301 -87 c12 -8 20 -19 18 -23 -3
-4 -8 -42 -11 -84 -6 -65 -5 -76 8 -72 8 4 19 17 25 31 7 13 17 24 23 24 9 0
43 -21 78 -46 2 -2 -31 -55 -72 -118 -99 -150 -104 -160 -111 -231 -13 -113
-15 -122 -39 -129 l-22 -7 22 -11 c23 -11 23 -12 2 -133 -5 -33 -12 -78 -14
-100 -8 -69 -14 -85 -35 -85 -29 0 -35 -21 -11 -39 l22 -17 -37 -199 c-20
-110 -43 -207 -51 -216 -7 -9 -11 -24 -7 -33 7 -19 28 -19 219 -6 90 6 132 5
136 -2 5 -8 17 -7 39 1 65 22 69 -20 5 -69 -24 -19 -44 -38 -45 -42 0 -5 29
-8 65 -8 l65 0 -6 38 -6 39 74 6 c40 4 88 11 105 18 28 9 36 8 59 -10 15 -12
32 -21 39 -21 7 0 16 -11 19 -24 3 -13 9 -31 12 -40 9 -24 -48 -21 -71 4 -38
42 -128 34 -201 -18 -38 -27 -48 -29 -284 -51 -135 -13 -248 -26 -251 -29 -4
-4 -30 -101 -58 -217 -259 -1058 -664 -1790 -928 -1680 -121 51 -172 195 -159
455 8 167 27 268 92 492 68 237 162 490 263 708 72 156 77 170 57 170 -13 0
-27 12 -38 30 -18 31 -44 48 -55 36 -4 -3 9 -22 27 -41 l34 -35 -31 0 c-95 0
-1135 -147 -1666 -235 -186 -31 -340 -55 -341 -53 -1 1 -15 29 -30 61 -15 31
-34 57 -41 57 -16 0 -30 -77 -21 -114 6 -26 52 -15 -415 -102 l-136 -26 20
-80 20 -81 -24 -17 -23 -18 29 -4 28 -3 92 -365 c51 -201 141 -547 201 -770
59 -223 108 -423 108 -445 1 -36 -1 -40 -24 -40 -16 0 -29 8 -37 25 -8 16 -19
24 -32 22 -25 -4 -35 15 -55 108 -9 41 -61 233 -116 425 -129 459 -250 901
-250 915 0 7 10 20 23 30 l22 19 -30 -2 -30 -2 -28 109 c-25 97 -27 110 -13
118 24 13 19 28 -8 28 -14 0 -37 5 -53 11 l-28 11 24 16 c72 49 74 66 14 103
-40 25 -55 18 -26 -14 36 -40 38 -49 8 -41 -31 8 -48 -10 -38 -41 6 -20 5 -20
-16 -1 -12 11 -26 38 -32 60 -6 23 -17 60 -24 83 l-13 42 45 7 c24 3 47 12 49
19 3 7 -2 37 -10 66 -9 29 -16 54 -16 56 0 1 15 -6 33 -17 40 -25 79 -27 70
-4 -3 8 -12 13 -19 10 -9 -3 -16 4 -20 21 -6 21 -1 31 20 50 15 13 33 23 40
23 21 0 27 -42 10 -61 -16 -18 -4 -36 16 -24 6 3 10 0 10 -7 0 -7 5 -30 11
-50 l10 -38 55 0 c31 0 68 6 82 14 35 19 187 45 203 35 8 -4 16 -3 20 2 9 15
142 39 154 28 12 -12 28 -12 20 1 -6 10 5 13 99 30 92 16 94 13 38 -36 -28
-25 -52 -52 -52 -59 0 -25 58 4 90 46 l31 38 32 -19 c36 -23 81 -27 74 -7 -2
6 -11 11 -20 11 -18 -2 -34 34 -20 46 4 4 28 10 53 14 l44 7 -22 -24 c-20 -21
-21 -37 -1 -37 4 0 16 15 27 33 19 33 19 33 148 50 71 9 230 31 354 47 234 31
569 71 750 90 58 6 233 24 390 40 157 16 302 30 322 30 35 0 39 3 74 68 78
142 412 695 517 855 90 136 114 166 129 161 23 -7 78 5 78 17 0 5 -18 9 -40 9
l-41 0 16 30 c13 26 21 30 56 30 49 0 49 20 0 35 -29 8 -32 13 -27 37 3 15 12
83 21 150 25 196 23 188 48 188 13 0 33 -7 45 -16z m180 -68 l21 -11 -23 -40
-24 -39 -21 42 c-24 48 -26 64 -8 92 12 20 12 20 23 -6 6 -15 21 -32 32 -38z
m1558 -1376 c24 -6 37 -4 45 6 7 9 31 14 63 14 l51 0 2 -37 c1 -20 9 -43 18
-52 16 -15 16 -12 10 37 l-7 52 157 0 c138 0 159 -2 171 -17 13 -16 15 -17 27
-2 7 10 19 14 31 9 14 -5 16 -9 8 -14 -9 -5 -5 -14 13 -28 14 -11 29 -17 33
-13 4 4 1 10 -5 12 -9 3 -10 10 -3 24 13 23 52 27 44 4 -5 -11 -2 -14 12 -8
11 3 22 11 26 17 5 7 74 5 223 -7 257 -22 285 -26 285 -42 0 -9 -72 -14 -292
-19 -161 -4 -308 -10 -327 -13 -23 -4 -32 -2 -27 5 4 7 -20 25 -63 47 -39 19
-74 35 -77 35 -12 0 39 -52 71 -71 l30 -19 -35 0 c-19 -1 -107 -5 -194 -10
l-159 -8 -20 24 c-22 28 -68 54 -94 54 -13 0 -7 -11 24 -40 30 -28 37 -40 25
-40 -9 0 -22 10 -27 23 -13 28 -52 25 -104 -8 -33 -22 -53 -24 -241 -35 -113
-6 -215 -13 -228 -16 -20 -4 -23 -1 -20 18 3 21 10 24 97 33 59 6 96 15 99 22
2 9 14 5 37 -13 43 -33 69 -29 73 11 3 30 6 31 100 56 53 14 101 23 106 21 4
-3 23 -8 42 -12z m-499 -8 c11 -18 8 -18 -60 -6 -107 19 -117 18 -117 -11 0
-16 -6 -25 -15 -25 -19 0 -20 -19 -1 -26 7 -3 35 -4 62 -2 l49 4 -35 9 c-29 7
-31 9 -15 16 30 11 33 11 45 -10 8 -16 4 -24 -28 -49 -47 -36 -101 -49 -103
-24 -1 16 -2 16 -6 0 -3 -11 -14 -18 -28 -18 -28 0 -42 17 -26 33 16 16 14 27
-5 27 -9 0 -25 11 -35 24 -18 23 -85 53 -95 43 -3 -3 18 -24 45 -48 28 -24 51
-47 51 -51 0 -23 -36 -38 -90 -38 -68 0 -87 15 -32 24 70 13 72 14 61 46 -19
54 -53 47 -168 -35 -35 -25 -68 -45 -75 -45 -19 0 -53 75 -49 107 4 27 10 31
55 41 64 15 86 15 84 0 -1 -16 5 -18 52 -17 l37 1 -30 13 c-16 8 -23 14 -15
15 98 5 198 7 173 3 -18 -2 -33 -8 -33 -13 0 -4 18 -6 40 -3 35 5 41 3 49 -20
17 -44 32 -43 25 1 -8 48 -6 49 131 51 78 1 92 -2 102 -17z m92 6 c11 -10 14
-10 18 0 3 6 16 12 31 12 20 0 23 -3 14 -12 -9 -9 -7 -14 6 -24 31 -24 -50
-16 -109 10 l-54 25 41 0 c22 1 46 -5 53 -11z m-819 -28 c0 -6 -27 -10 -62 -9
-47 1 -57 3 -38 9 36 12 100 12 100 0z m225 -130 c-3 -5 -18 -10 -33 -9 l-27
1 25 8 c35 11 42 11 35 0z m-325 -15 c0 -2 -10 -10 -22 -16 -21 -11 -22 -11
-9 4 13 16 31 23 31 12z"/>
<path d="M9717 10529 c-27 -21 -38 -64 -15 -57 15 5 53 67 46 74 -3 2 -17 -5
-31 -17z"/>
<path d="M9646 10318 c-18 -25 -21 -64 -6 -73 11 -7 40 46 40 75 0 26 -15 26
-34 -2z"/>
<path d="M11070 10495 c0 -4 9 -19 21 -33 l21 -27 -4 30 c-2 19 -9 31 -20 33
-10 2 -18 0 -18 -3z"/>
<path d="M10248 10602 c-16 -9 -28 -20 -28 -23 0 -11 49 -20 75 -13 29 7 29
21 -1 40 -16 11 -24 10 -46 -4z"/>
<path d="M3133 7203 c-13 -43 -3 -62 21 -38 19 20 20 35 4 58 -12 15 -14 13
-25 -20z"/>
<path d="M2936 6904 c-16 -15 -23 -79 -8 -72 58 28 102 54 102 60 0 9 -44 28
-65 28 -7 0 -21 -7 -29 -16z"/>
<path d="M2702 6758 c-13 -13 -16 -60 -6 -71 15 -14 34 8 34 38 0 38 -11 50
-28 33z"/>
<path d="M2454 6376 c-3 -8 -1 -24 5 -35 11 -20 11 -20 34 2 21 19 22 24 8 35
-20 16 -40 15 -47 -2z"/>
<path d="M9470 9178 c0 -33 11 -68 20 -68 15 0 21 37 11 64 -13 32 -31 34 -31
4z"/>
<path d="M7050 9387 c-20 -17 -89 -150 -134 -258 -38 -94 -84 -267 -112 -426
-14 -82 -15 -108 -5 -129 11 -24 13 -25 34 -12 12 8 36 37 52 65 17 27 36 48
43 45 13 -4 36 44 27 58 -3 5 31 82 76 171 76 152 81 166 75 209 -4 33 -2 52
9 65 17 24 20 121 4 162 -9 23 -42 64 -51 63 -2 0 -10 -6 -18 -13z"/>
<path d="M6725 8760 c-10 -11 -15 -23 -12 -27 8 -7 47 25 47 39 0 14 -16 9
-35 -12z"/>
<path d="M5596 8658 c-97 -99 -182 -292 -233 -528 -22 -103 -26 -371 -6 -391
32 -32 93 72 167 286 30 88 77 223 104 300 59 167 84 274 80 341 -3 43 -6 49
-27 52 -18 3 -38 -11 -85 -60z"/>
<path d="M6801 8514 c-33 -27 -41 -54 -17 -54 20 0 76 49 76 66 0 22 -25 17
-59 -12z"/>
<path d="M7200 8070 c0 -11 79 -54 87 -47 6 7 -61 57 -75 57 -7 0 -12 -4 -12
-10z"/>
<path d="M7000 7687 c0 -18 43 -37 69 -30 31 8 26 18 -18 31 -48 15 -51 15
-51 -1z"/>
<path d="M6974 7523 c-209 -323 -472 -768 -460 -780 5 -5 295 13 367 23 l35 5
32 177 c17 97 39 224 49 282 14 86 21 108 40 123 30 24 32 53 3 37 -18 -9 -19
-8 -15 17 3 16 9 55 15 87 13 76 13 116 0 116 -5 0 -35 -39 -66 -87z"/>
<path d="M6910 7528 c-13 -23 -16 -36 -9 -43 12 -12 73 50 64 65 -12 19 -36 9
-55 -22z"/>
<path d="M6850 6730 c0 -11 7 -37 16 -58 13 -31 17 -34 25 -20 7 12 5 28 -5
51 -17 42 -36 56 -36 27z"/>
<path d="M7226 6731 c-23 -26 -17 -55 13 -59 19 -3 22 0 16 17 -3 11 -1 29 5
41 14 27 -10 28 -34 1z"/>
<path d="M6985 6710 c-18 -19 -17 -20 6 -20 25 0 49 16 49 32 0 16 -37 8 -55
-12z"/>
<path d="M7306 6695 c8 -37 14 -45 14 -19 0 10 -5 26 -10 34 -8 11 -9 7 -4
-15z"/>
<path d="M5554 6612 c-42 -33 -51 -82 -15 -82 11 0 20 14 28 48 6 26 10 48 9
49 -1 1 -11 -6 -22 -15z"/>
<path d="M6467 6602 c-15 -15 -27 -38 -27 -50 0 -16 -6 -22 -23 -22 -21 0 -35
-23 -109 -177 -105 -216 -144 -310 -215 -518 -151 -445 -200 -799 -134 -965
47 -116 87 -127 179 -49 105 89 183 203 303 441 109 218 209 487 309 833 48
166 120 448 120 470 0 8 -57 5 -190 -9 -105 -10 -193 -16 -197 -13 -3 4 1 25
10 47 18 47 11 51 -26 12z"/>
<path d="M5100 6457 c-30 -17 -56 -40 -58 -50 -6 -29 25 -19 54 18 14 19 32
35 38 35 7 0 21 7 32 15 38 29 -10 16 -66 -18z"/>
<path d="M3375 6380 c-3 -5 0 -21 7 -34 l13 -25 22 25 c21 23 21 24 3 34 -24
13 -37 13 -45 0z"/>
<path d="M8804 6779 c-6 -10 11 -29 26 -29 3 0 11 4 19 9 17 11 5 31 -19 31
-10 0 -22 -5 -26 -11z"/>
<path d="M9172 6779 c3 -9 23 -15 59 -17 67 -4 56 15 -15 24 -39 6 -48 4 -44
-7z"/>
<path d="M7884 6779 c-6 -10 11 -29 26 -29 3 0 11 4 19 9 17 11 5 31 -19 31
-10 0 -22 -5 -26 -11z"/>
</g>
</svg>
